@startuml Domain Model
skinparam nodesep 20
skinparam linetype ortho
skinparam ranksep 150
left to right direction
skinparam style strictuml
skinparam style DefaultFontName Arial
skinparam DefaultFontSize 16
skinparam DefaultFontStyle bold
skinparam ArrowThickness 2.2
skinparam ArrowColor #grey
hide empty members


package datastore <<Folder>>{
    interface Entity {
        storify(): String
    }
    interface EntityBuilder<T>{
        fromString(String string): T
    }
    interface RecordFilterStrategy<T>   {
        apply(T obj): boolean
    }
    interface RecordProjectStrategy<T,B>   {
        apply(T obj): B
    }
    interface RecordUpdateStrategy<T extends Entity>   {
        apply(T obj): T
    }
    class  Relation<T>{
        - DATA_PATH: String {readOnly}
        - path: String
        - records: ArrayList<T>
        - recordBuilder: EntityBuilder<T>
        --
        + removeAll(): void
        + save(): void
        - load(): void
        + insert(T record): void
        + selectMax(RecordProjectStrategy<T, B> RecordProject): <B extends Comparable<B>> B
        + select(RecordFilterStrategy<T> filter): ArrayList<T>
        + recordExists(RecordFilterStrategy<T> filter): boolean
        + update(RecordUpdateStrategy<T> updater, RecordFilterStrategy<T> filter): ArrayList<T>
    }
}

package handlers <<folder>>{
    abstract class  Handler   {
        + {abstract} getHandlerName(): HandlerName
        + {abstract} getRequestKeys(): String[]
        + {abstract} getConstrains(): String
        # {abstract} handleRequestAndGetAmount(HasMap<String, String> request): HandlerResponse
        # requestContainsAllKeys(HashMap<String, String> request): boolean
        + validateAndHandleRequest(HasMap<String, String> request): request
    }
    class  HandlerFactory  {
        - handlers: Map<HandlerName, Handler>
        --
        + getHandler: Handler
    }
    enum HandlerName   {
        VODAFONE_RECHARGE
        WE_RECHARGE
        ORANGE_RECHARGE
        VODAFONE_INTERNET
        ETISALAT_RECHARGE
        WE_INTERNET
        ETISALAT_INTERNET
        ORANGE_INTERNET
        QUARTERLY_LANDLINE
        MONTHLY_LANDLINE
        NGO_DONATION
        CANCER_HOSPITAL_DONATION
        SCHOOL_DONATION
        PROXY
        ERRONEOUS
    }
    class  HandlerResponse   {
        + success: boolean {readOnly}
        + errorMessage: String {readOnly}
        + amount: Double {readOnly}
    }

    package handlers.concrete{
        class  CancerHospitalDonationHandler extends Handler{
            - {static} TYPES_PRICES: Map<String, Double>
        }
        class  ErroneousHandler extends Handler {

        }
        class  EtisalatInternetHandler extends Handler{
            + {static} allowedBandwidth: Set<String> {readOnly}
        }
        class  EtisalatRechargeHandler extends Handler{
        }
        class  MonthlyLandlineHandler extends Handler{
            - {static} MONTHLY_PRICE: Double
        }
        class  NgoDonationHandler extends Handler{

        }
        class  OrangeInternetHandler extends Handler{
            - {static} allowedBandwidth: Set<String> {readOnly}
        }
        class  OrangeRechargeHandler extends Handler{

        }
        class  QuarterlyLandlineHandler extends Handler{
            - {static} QUARTERLY_PRICE: double
        }
        class  SchoolDonationHandler extends Handler{

        }
        class  VodafoneInternetHandler extends Handler{
            - {static} allowedBandwidth: Set<String> {readOnly}
        }
        class  VodafoneRechargeHandler extends Handler{

        }
        class  WeInternetHandler extends Handler{

        }
        class  WeRechargeHandler extends Handler{

        }

    }
}

package payments{
    package payments.boundaries{
        abstract class  Frame{
            + {abstract} getFrameName(): FrameName
            # {abstract} display(Scanner scanner): FrameName
            + displayWithInstruction(Scanner scanner): FrameName
        }
        enum FrameName {
            ERROR
            GUEST_VIEW
            SIGN_IN
            SIGN_UP
            HOME_USER
            SEARCH_SERVICE_PROVIDER
            LIST_ALL_PROVIDERS
            LIST_PROVIDERS
            SPECIFIC_SERVICE_PROVIDER
            PAYMENT_METHOD
            REFUND_REQUEST
            ADD_AMOUNT_TO_WALLET
            ADDING_RESULT
            DISCOUNT
            HOME_ADMIN
            ADD_DISCOUNT
            LIST_ALL_TRANSACTIONS
            ADMIN_REFUND
            BECOME_ADMIN
        }
        class  Router{
            - frames: HashMap<FrameName, Frame>
            - currentFrame: Frame
            --
            + mainLoop(): void
        }

        package payments.boundaries.concretes{
            package payments.boundaries.concretes.admin{
                class  AdminAddDiscount extends Frame  {
                    - adminDiscountController: AdminDiscountController
                    - serviceController: ServiceController
                }
                class  AdminRefund extends Frame   {
                    - aRefund: AdminRefundController
                }
                class  HomeAdmin extends Frame   {
                    - authController: AuthController
                }
                class  ListAllTransactions extends Frame   {
                    - adminTransactionController: AdminTransactionController
                }
            }

            package payments.boundaries.concretes.common{
                class  GuestView extends Frame  {

                }
                class  SignIn extends Frame  {
                    - controller: AuthController
                }
                class  SignUp extends Frame  {
                    - controller: AuthController
                }
            }
            package payments.boundaries.concretes.user{
                class  AddToWallet extends Frame   {
                    - userController: UserController
                }
                class BecomeAdmin extends Frame {
                    - adminUserController: AdminUserController
                    - authController: AuthController
                }
                class  DiscountList extends Frame    {
                    - discountController: DiscountController
                }
                class  HomeUser extends Frame    {
                    - currentUser: User
                    - authController: AuthController
                }
                class  ListAllProviders extends Frame    {
                    - providerController: ProviderController
                }
                class  ListProviders extends Frame   {
                    - providers: ArrayList<Providers>
                }
                class  PayForService extends Frame   {
                    - paymentController: PaymentController
                    - providerController: ProviderController
                }
                class  UserRefundRequest extends Frame   {
                    - refundController: RefundController
                    - transactionController: TransactionController
                }
            }
        }
    }
    package payments.common{
        class  Response   {
            + success: boolean {readOnly}
            + value: String {readOnly}
        }
        package payments.common.enums{
            enum DiscountType {
                OVERALL
                SPECIFIC
            }
            enum FormElementType   {
                TEXT_FIELD
                DROP_DOWN_FIELD
            }
            enum RefundRequestStatus   {
                ACCEPTED
                REJECTED
                PENDING
            }
            enum TransactionType   {
                PAYMEN
                ADD_TO_WALLET
                REFUND
            }
        }
    }
    package payments.controllers{

        package payments.controllers.admin{

            class  AdminDiscountController   {
                - discountRelation: Relation<Discount>
                --
                - addDiscount(DiscountType discountType, double percentage, String serviceName): void
                + addOverallDiscount(double percentage): Response
                + addSpecificDiscount(String serviceName, double percentage)
            }
            class  AdminFormElementController   {
                - formElementRelation: Relation<FormElement>
                - formElementChoiceRelation: Relation<FormElementChoice>
                --
                + addFormElement(DiscountType discountType, double percentage, String serviceName): Response
                + addFormElementChoice(String info, String serviceName, String providerName): Response
            }
            class  AdminProviderController   {
                - providerRelation: Relation<Provider>
                --
                + addProvider(String serviceName, String name, boolean cashOnDelivery,
                HandlerName handlerName): Response
            }
            class  AdminRefundController   {
                - refundRelation: Relation<RefundRequest>
                - userRelation: Relation<User>
                - transactionRelation: Relation<Transaction>
                --
                + getRefundRequest(): ArrayList<RefundRequest>
                + acceptRefund(int rid): Response
                + rejectRefund(int rid): Response
            }
            class  AdminServiceController   {
                - serviceRelation: Relation<Service>
                --
                + addService(String serviceName): Response
            }
            class  AdminTransactionController   {
                - relation: Relation<Transaction>
                --
                + getAllTransactions(): ArrayList<Transaction>
            }
            class  AdminUserController {
                - relation: Relation<User>
                --
                + setAdmin(String email): Response
            }
        }

        package payments.controllers.paymentstrategies{
            interface PaymentStrategy   {
                pay(double amount): Response
            }
            class  PayCashOnDelivery  implements PaymentStrategy {

            }
            class  PayWithCreditCard  implements PaymentStrategy {
                - cardNumber: String
            }
            class  PayWithWallet  implements PaymentStrategy {
                - payingUser: User
                - userRelation: Relation<User>
            }
        }

        class  AuthController   {
            - relation: Relation<User>
            - logInSession: LogInSession
            --
            + signUp(String email, String userName, String password): Response
            + logIn(String email, String password): Response
            + logOut(): Response
            + getLoggedUnUser(): User
            + isAdmin(): boolean
        }
        class  DiscountController   {
            - discountRelation: Relation<Discount>
            - usedDiscountRelation: Relation<UsedDiscount>
            - logInSession: LogInSession
            --
            - getEffectiveDiscounts(ArrayList<Discount> discounts): ArrayList<Discount>
            + getDiscountsForService(String serviceName): ArrayList<Discount>
            + getAllDiscounts(): ArrayList<Discount>
            + useDiscount(int discountId): Response
        }
        class  LogInSession   {
            - loggedInUser: User
            --
            + setLoggedinUser(User user): void
            + getLoggedInUser(): User
        }
        class  PaymentController   {
            - providerRelation: Relation<Provider>
            - transactionRelation: Relation<Transaction>
            - userRelation: Relation<User>
            - discountController: DiscountController
            - logInSession: LogInSession
            --
            - payToProvider(String serviceName, String providerName,
            HashMap<String, String> request, PaymentStrategy paymentStrategy): Response
            + payUsingWallet(String serviceName, String providerName,
            HashMap<String, String> request): Response
            + payUsingCreditCard(String serviceName, String providerName, HashMap<String,
            String> request, String cardNumber): Response
            + payCashOnDelivery(String serviceName, String providerName,
            HashMap<String, String> request): Response
        }
        class  RefundController   {
            - refundRequestRelation: Relation<RefundRequest>
            - transactionRelation: Relation<Transaction>
            - logInSession: LogInSession
            --
            + requestRefund(int transactionId): Response
        }
        class  ServiceController   {
            - ServiceRelation: Relation<Service>
            --
            + getAllServices(): ArrayList<Service>
        }
        class  TransactionController   {
            - transactionRelation: Relation<Transaction>
            - logInSession: LogInSession
            --
            + getTransactionForUser(): ArrayList<Transaction>
        }
        class  UserController   {
            - userRelation: Relation<User>
            - logInSession: LogInSession
            --
            + rechargeWallet(double amount, String cardNumber): Response
        }
        class  ProviderController    {
            - providerRelation: Relation<Provider>
            - formElementRelation: Relation<FormElement>
            --
            + searchforProviders(String serviceNameAndProviderName): ArrayList<Provider>
            + getProvidersForService(String serviceName): ArrayList<Provider>
            + getAllProviders(): ArrayList<Provider>
            + getProviderFormElements(String serviceName, String providerName): ArrayList<FormElement>
            + supportsCashOnDelivery(String serviceName, String providerName): boolean
        }
    }


    package payments.entities{
        package payments.entities.builders{
            class  DiscountBuilder {

            }
            class  FormElementBuilder {

            }
            class  ProviderBuilder {

            }
            class  RefundRequestBuilder {

            }
            class  ServiceBuilder {

            }
            class  TransactionBuilder {

            }
            class  UsedDiscountBuilder {

            }
            class  UserBuilder {

            }
            class  FormElementChoiceBuilder {

            }
        }

        class  Discount implements Entity  {
            + id: int {readOnly}
            + type: DiscountType {readOnly}
            + percentage: double {readOnly}
            + serviceName: String {readOnly}
        }
        class  FormElement implements Entity  {
            + name: String {readOnly}
            + serviceName: String {readOnly}
            + providerName: String {readOnly}
            + type: FormElementType {readOnly}
            + info: String {readOnly}
        }
        class  FormElementChoice implements Entity  {
            + info: String {readOnly}
            + serviceName: String {readOnly}
            + providerName: String {readOnly}
        }
        class  Provider implements Entity  {
            + serviceName: String {readOnly}
            + name: String {readOnly}
            + cashOnDelivery: boolean {readOnly}
            + handlerName: HandlerName {readOnly}
        }
        class  RefundRequest implements Entity  {
            + id: int {readOnly}
            + transactionId: int {readOnly}
            + status: RefundRequestStatus {readOnly}
            + userEmail: String {readOnly}
        }
        class  Service implements Entity  {
            + name: String {readOnly}
        }
        class  Transaction implements Entity  {
            + id: int {readOnly}
            + userEmail: String {readOnly}
            + timestamp: LocalDateTime {readOnly}
            + amount: double {readOnly}
            + type: TransactionType {readOnly}
            + serviceName: String {readOnly}
            + providerName: String {readOnly}
        }
        class  UsedDiscount implements Entity  {
            + email: String {readOnly}
            + discountID: int {readOnly}
        }
        class  User implements Entity  {
            + email: String {readOnly}
            + username: String {readOnly}
            + password: String {readOnly}
            + isAdmin: boolean {readOnly}
            + wallet: double {readOnly}
        }

        '----------------------------------------------------------
        Relation -- RecordProjectStrategy
        Relation -- RecordFilterStrategy
        Relation -- RecordUpdateStrategy

        Relation <|.. "Relation<User>"
        "Relation<User>" -d- User

        Relation <|.. "Relation<Transaction>"
        "Relation<Transaction>" -d- Transaction

        Relation <|.. "Relation<Service>"
        "Relation<Service>" -d- Service

        Relation <|.. "Relation<RefundRequest>"
        "Relation<RefundRequest>" -d- RefundRequest

        Relation <|.. "Relation<Provider>"
        "Relation<Provider>" -d- Provider

        Relation <|.. "Relation<Discount>"
        "Relation<Discount>" -d- Discount

        Relation <|.. "Relation<UsedDiscount>"
        "Relation<UsedDiscount>" -d- UsedDiscount

        Relation <|.. "Relation<FormElement>"
        "Relation<FormElement>" -d- FormElement

        Relation <|.. "Relation<FormElementChoice>"
        "Relation<FormElementChoice>" -d- FormElementChoice

        AuthController o-- "Relation<User>"
        AuthController o-- LogInSession

        DiscountController o-- "Relation<Discount>"
        DiscountController o-- "Relation<UsedDiscount>"
        DiscountController o-- LogInSession

        LogInSession o-- User

        PaymentController o-- "Relation<Transaction>"
        PaymentController o-- "Relation<Provider>"
        PaymentController o-- "Relation<User>"
        PaymentController o-- DiscountController
        PaymentController o-- LogInSession

        RefundController o-- "Relation<RefundRequest>"
        RefundController o-- "Relation<Transaction>"
        RefundController o-- LogInSession

        ServiceController o-- "Relation<Service>"

        TransactionController o-- "Relation<Transaction>"
        TransactionController o-- LogInSession

        UserController o-- "Relation<User>"
        UserController o-- LogInSession

        ProviderController o-- "Relation<FormElement>"
        ProviderController o-- "Relation<Provider>"

        AdminDiscountController o-- "Relation<Discount>"

        AdminFormElementController o-- "Relation<FormElement>"
        AdminFormElementController o-- "Relation<FormElementChoice>" 

        AdminProviderController o-- "Relation<Provider>" 

        AdminRefundController o-- "Relation<RefundRequest>" 
        AdminRefundController o-- "Relation<User>" 
        AdminRefundController o-- "Relation<Transaction>" 

        AdminServiceController o-- "Relation<Service>" 

        AdminTransactionController o-- "Relation<Transaction>" 

        AdminUserController o-- "Relation<User>"

        Router o-- Frame
        Router o-- FrameName

        AdminAddDiscount o-- AdminDiscountController
        AdminAddDiscount o-- ServiceController

        AdminRefund o-- AdminRefundController

        HomeAdmin o-- AuthController

        ListAllTransactions o-- AdminTransactionController

        SignIn o-- AuthController
        SignUp o-- AuthController

        AddToWallet o-- UserController

        BecomeAdmin o-- AdminUserController
        BecomeAdmin o-- AuthController

        DiscountList o-- DiscountController

        HomeUser o-- User
        HomeUser o-- AuthController

        ListAllProviders o-- ProviderController

        ListProviders o-- Provider

        PayForService o-- PaymentController
        PayForService o-- ProviderController

        PayWithWallet o-- User
        PayWithWallet o-- "Relation<User>"

        UserRefundRequest o-- RefundController
        UserRefundRequest o-- TransactionController

        HandlerFactory o-- Handler
        HandlerFactory o-- HandlerName

        HandlerFactory -- CancerHospitalDonationHandler
        HandlerFactory -- ErroneousHandler
        HandlerFactory -- EtisalatInternetHandler
        HandlerFactory -- EtisalatRechargeHandler
        HandlerFactory -- MonthlyLandlineHandler
        HandlerFactory -- NgoDonationHandler
        HandlerFactory -- OrangeInternetHandler
        HandlerFactory -- OrangeRechargeHandler
        HandlerFactory -- QuarterlyLandlineHandler
        HandlerFactory -- SchoolDonationHandler
        HandlerFactory -- VodafoneInternetHandler
        HandlerFactory -- VodafoneRechargeHandler
        HandlerFactory -- WeInternetHandler
        HandlerFactory -- WeRechargeHandler


        EntityBuilder <|.. "EntityBuilder<Discount>"
        EntityBuilder <|.. "EntityBuilder<FormElement>"
        EntityBuilder <|.. "EntityBuilder<Provider>"
        EntityBuilder <|.. "EntityBuilder<RefundRequest>"
        EntityBuilder <|.. "EntityBuilder<Service>"
        EntityBuilder <|.. "EntityBuilder<Transaction>"
        EntityBuilder <|.. "EntityBuilder<UsedDiscount>"
        EntityBuilder <|.. "EntityBuilder<User>"
        EntityBuilder <|.. "EntityBuilder<FormElementChoice>"

        "EntityBuilder<Discount>" -- Discount
        "EntityBuilder<FormElement>" -- FormElement
        "EntityBuilder<Provider>" -- Provider
        "EntityBuilder<RefundRequest>" -- RefundRequest
        "EntityBuilder<Service>" -- Service
        "EntityBuilder<Transaction>" -- Transaction
        "EntityBuilder<UsedDiscount>" -- UsedDiscount
        "EntityBuilder<User>" -- User
        "EntityBuilder<FormElementChoice>" -- FormElementChoice

        DiscountBuilder ..|> "EntityBuilder<Discount>"
        FormElementBuilder ..|> "EntityBuilder<FormElement>"
        ProviderBuilder ..|> "EntityBuilder<Provider>"
        RefundRequestBuilder ..|> "EntityBuilder<RefundRequest>"
        ServiceBuilder ..|> "EntityBuilder<Service>"
        TransactionBuilder ..|> "EntityBuilder<Transaction>"
        UsedDiscountBuilder ..|> "EntityBuilder<UsedDiscount>"
        UserBuilder ..|> "EntityBuilder<User>"
        FormElementChoiceBuilder ..|> "EntityBuilder<FormElementChoice>"

        AdminDiscountController -- Response
        AdminFormElementController -- Response
        AdminProviderController -- Response
        AdminRefundController -- Response
        AdminServiceController -- Response
        AdminUserController -- Response
        PaymentStrategy -- Response
        AuthController -- Response
        DiscountController -- Response
        PaymentController -- Response
        RefundController -- Response
        ServiceController -- Response
        UserController -- Response

        Discount -- DiscountType
        DiscountType -- AdminFormElementController
        DiscountType -- AdminDiscountController

        FormElementType -- FormElement

        RefundRequestStatus -- RefundRequest

        TransactionType -- Transaction

        PaymentController -- Handler
        PaymentController -- HandlerFactory
        PaymentController -- HandlerResponse

        AdminProviderController -- HandlerName

        Provider -- HandlerName

        ProviderBuilder -- HandlerName

        Frame -- FrameName

        Relation -- "RecordFilterStrategy"
        Relation -- "RecordUpdateStrategy"
        Relation -- "RecordProjectStrategy"
        PaymentStrategy -- PaymentController
    }
}



@enduml
